# xmcd CD database file
#
# Track frame offsets:
#	150
#	24693
#	43534
#	65583
#	89353
#	120118
#	150822
#	173371
#	207190
#	222121
#
# Disc length: 3265 seconds
#
# Revision: 0
# Processed by: cddbd v1.5.2PL0 Copyright (c) Steve Scherf et al.
# Submitted via: CDex 1.70beta2
#
DISCID=710cbf0a
DTITLE=Tony Kofi - Silent Truth
DYEAR=2008
DGENRE=Jazz
TTITLE0=Giants
TTITLE1=Dante
TTITLE2=Cicada
TTITLE3=First Breath
TTITLE4=If I Spoke My Mind
TTITLE5=Oont
TTITLE6=Unremoved
TTITLE7=Inner Truth
TTITLE8=Disharmony
TTITLE9=Bishop's Move
EXTD=YEAR: 2008
EXTT0=
EXTT1=
EXTT2=
EXTT3=
EXTT4=
EXTT5=
EXTT6=
EXTT7=
EXTT8=
EXTT9=
PLAYORDER=
